<?xml version="1.0" encoding="UTF-8" standalone="no"?>
<!-- Created with Inkscape (http://www.inkscape.org/) -->

<svg
   width="502.8251"
   height="399.99069"
   viewBox="0 0 502.8251 399.99069"
   version="1.1"
   id="svg1"
   xml:space="preserve"
   inkscape:export-filename="LogoClaro.svg"
   inkscape:export-xdpi="96"
   inkscape:export-ydpi="96"
   xmlns:inkscape="http://www.inkscape.org/namespaces/inkscape"
   xmlns:sodipodi="http://sodipodi.sourceforge.net/DTD/sodipodi-0.dtd"
   xmlns="http://www.w3.org/2000/svg"
   xmlns:svg="http://www.w3.org/2000/svg"><sodipodi:namedview
     id="namedview1"
     pagecolor="#ffffff"
     bordercolor="#000000"
     borderopacity="0.25"
     inkscape:showpageshadow="2"
     inkscape:pageopacity="0.0"
     inkscape:pagecheckerboard="0"
     inkscape:deskcolor="#d1d1d1"
     inkscape:document-units="px"
     showgrid="true"
     inkscape:export-bgcolor="#ffffff00"><inkscape:grid
       id="grid3"
       units="px"
       originx="-8.4235277"
       originy="-62.13142"
       spacingx="1"
       spacingy="1"
       empcolor="#0099e5"
       empopacity="0.30196078"
       color="#0099e5"
       opacity="0.14901961"
       empspacing="5"
       dotted="false"
       gridanglex="30"
       gridanglez="30"
       visible="true" /></sodipodi:namedview><defs
     id="defs1" /><g
     inkscape:groupmode="layer"
     id="layer2"
     inkscape:label="Camada 2"
     transform="translate(-8.4235277,-62.13142)"><path
       style="fill:#000000;fill-opacity:1;stroke:none;stroke-width:6;stroke-linecap:round;stroke-linejoin:round;stroke-miterlimit:3.8;stroke-dashoffset:26.4"
       d="m 147.59766,462.00391 h 19.67578 c 0,0 -4.14844,-23.00391 16.78906,-22.87891 20.9375,0.125 148.98479,0.1487 148.98479,0.1487 0,0 14.89344,-0.0884 15.55635,11.71145 0.30936,11.13694 0.30936,11.13694 0.30936,11.13694 l 19.79899,-0.0884 -0.39775,-11.88824 c 0,0 -3.04939,-27.44458 -31.46625,-30.36139 -29.03557,-0.13259 -29.03557,-0.13259 -29.03557,-0.13259 l -127.27922,-0.0221 c 0,0 -27.2832,0.0581 -32.9082,30.37061 -0.125,11.75 -0.0273,12.00391 -0.0273,12.00391 z"
       id="path2" /><path
       style="fill:#000000;fill-opacity:1;stroke:none;stroke-width:6;stroke-linecap:round;stroke-linejoin:round;stroke-miterlimit:3.8;stroke-dashoffset:26.4"
       d="m 27.927079,274.95366 19.652344,-0.008 0.01749,83.03268 c 0,0 -1.093806,13.34664 13.42398,15.60054 l 13.876971,0.0663 381.042156,-0.0884 c 0,0 16.08668,0.35356 14.67247,-18.9151 l -0.0884,-32.43853 -0.0625,-47.20626 19.77846,-0.0415 -0.0937,86.75738 c 0,0 -1.23743,26.78166 -30.67075,31.37786 l -28.28427,0.17677 -370.170397,0.0884 c 0,0 -30.228815,-1.76776 -33.14563,-32.08497 v -31.02431 z"
       id="path3"
       inkscape:label="path3"
       sodipodi:nodetypes="ccccccccccccccccc" /><path
       style="fill:#000000;fill-opacity:1;stroke:none;stroke-width:6;stroke-linecap:round;stroke-linejoin:round;stroke-miterlimit:3.8;stroke-dashoffset:26.4"
       d="m 27.862739,180.53357 19.652344,0.008 0.01749,-83.03268 c 0,0 -1.093806,-13.34664 13.42398,-15.60054 l 13.876971,-0.0663 381.042166,0.0884 c 0,0 16.08668,-0.35356 14.67247,18.9151 l -0.0884,32.43853 -0.0625,47.20626 19.77846,0.0415 -0.0937,-86.75738 c 0,0 -1.23743,-26.78167 -30.67075,-31.37787 L 431.127,62.21982 60.956593,62.13142 c 0,0 -30.228815,1.76776 -33.14563,32.08498 v 31.02431 z"
       id="path4"
       inkscape:label="path4"
       sodipodi:nodetypes="ccccccccccccccccc" /><text
       xml:space="preserve"
       style="font-size:96px;text-align:center;text-anchor:middle;opacity:1;fill:#000000;fill-opacity:1;stroke:none;stroke-width:5.45383;stroke-linecap:round;stroke-linejoin:round;stroke-miterlimit:3.8;stroke-dashoffset:26.4"
       x="259.95898"
       y="191.06232"
       id="text4"><tspan
         sodipodi:role="line"
         id="tspan4"
         x="259.95898"
         y="191.06232"
         style="font-style:normal;font-variant:normal;font-weight:900;font-stretch:normal;font-size:96px;font-family:Roboto;-inkscape-font-specification:'Roboto Heavy';text-align:center;text-anchor:middle;fill:#000000;fill-opacity:1;stroke-width:5.45383">LUAN</tspan><tspan
         sodipodi:role="line"
         x="259.95898"
         y="314.64603"
         style="font-style:normal;font-variant:normal;font-weight:900;font-stretch:normal;font-size:96px;font-family:Roboto;-inkscape-font-specification:'Roboto Heavy';text-align:center;text-anchor:middle;fill:#000000;fill-opacity:1;stroke-width:5.45383"
         id="tspan7">GARCIA</tspan></text><g
       id="g2"
       transform="matrix(0.60031049,0,0,0.60031049,424.57971,173.04176)"
       style="fill:#24b9b9;fill-opacity:0.92549">
	<g
   id="g1"
   style="fill:#24b9b9;fill-opacity:0.92549">
		<path
   style="fill:#24b9b9;fill-opacity:0.92549"
   d="m 51.707,185.343 c -2.741,0 -5.493,-1.044 -7.593,-3.149 -4.194,-4.194 -4.194,-10.981 0,-15.175 L 118.466,92.672 44.114,18.32 c -4.194,-4.194 -4.194,-10.987 0,-15.175 4.194,-4.194 10.987,-4.194 15.18,0 l 81.934,81.934 c 4.194,4.194 4.194,10.987 0,15.175 l -81.934,81.939 c -2.093,2.1 -4.84,3.15 -7.587,3.15 z"
   id="path1-1" />
	</g>
</g><path
       style="fill:#24b9b9;fill-opacity:0.92549;stroke-width:0.600311"
       d="m 64.0522,284.30511 c 1.64545,0 3.29751,-0.62673 4.55816,-1.89038 2.5177,-2.5177 2.5177,-6.59201 0,-9.10971 L 23.97607,228.67373 68.61036,184.03945 c 2.5177,-2.5177 2.5177,-6.59561 0,-9.10971 -2.5177,-2.51771 -6.59561,-2.51771 -9.11271,0 l -49.18584,49.18584 c -2.51771,2.5177 -2.51771,6.59561 0,9.10971 l 49.18584,49.18884 c 1.25645,1.26065 2.9055,1.89098 4.55455,1.89098 z"
       id="path6" /></g></svg>
